<svg width="140" height="41" fill="none" xmlns="http://www.w3.org/2000/svg"><path d="M135.019 41H4.904C2.201 41 0 38.819 0 36.149V4.844C0 2.173 2.2 0 4.904 0H135.02c2.702 0 4.98 2.173 4.98 4.844V36.15c0 2.67-2.278 4.851-4.981 4.851z" fill="#A6A6A6"/><path d="M138.766 35.85c0 2.17-1.778 3.926-3.978 3.926H4.6c-2.199 0-3.983-1.756-3.983-3.925V4.543C.617 2.375 2.4.613 4.6.613h130.187c2.201 0 3.978 1.762 3.978 3.93l.001 31.308z" fill="#000"/><path d="M31.036 20.248c-.03-3.304 2.733-4.91 2.86-4.986-1.566-2.258-3.99-2.566-4.843-2.591-2.037-.212-4.013 1.207-5.05 1.207-1.06 0-2.657-1.187-4.38-1.152-2.215.034-4.289 1.304-5.426 3.276-2.346 4.021-.596 9.93 1.652 13.18 1.125 1.593 2.439 3.37 4.159 3.307 1.683-.068 2.311-1.061 4.342-1.061 2.012 0 2.603 1.061 4.357 1.021 1.806-.028 2.943-1.599 4.028-3.205 1.3-1.824 1.822-3.621 1.843-3.713-.043-.015-3.508-1.324-3.542-5.283zm-3.314-9.715c.905-1.12 1.524-2.644 1.353-4.191-1.31.057-2.949.897-3.892 1.992-.835.966-1.58 2.549-1.388 4.037 1.472.108 2.983-.735 3.927-1.838z" fill="#fff"/><path fill-rule="evenodd" clip-rule="evenodd" d="M53.138 32.432h2.369l-4.49-13.462h-2.76l-4.468 13.462h2.306l1.236-3.954h4.51l1.297 3.954zm-2.862-9.128l1.173 3.515h-3.726l1.152-3.515c.303-1.118.523-1.964.66-2.536h.041c.343 1.33.576 2.177.7 2.536zm15.536 7.71c.942-.973 1.413-2.298 1.413-3.974 0-1.501-.404-2.711-1.213-3.631-.808-.92-1.817-1.379-3.026-1.379-1.546 0-2.698.588-3.457 1.765h-.043l-.127-1.562h-2.002a65.54 65.54 0 01.084 3.244v10.628h2.277v-5.192h.042c.591.932 1.56 1.399 2.91 1.399 1.25 0 2.298-.433 3.142-1.298zm-1.581-6.268c.45.623.674 1.414.674 2.373 0 1.041-.239 1.88-.717 2.515-.478.635-1.145.953-2.002.953-.73 0-1.325-.246-1.782-.74-.457-.494-.685-1.1-.685-1.816v-1.643c0-.175.035-.397.106-.668a2.48 2.48 0 01.895-1.41 2.425 2.425 0 011.529-.537c.828 0 1.49.324 1.982.973zm12.681 6.268c.943-.973 1.414-2.298 1.414-3.974 0-1.501-.405-2.711-1.211-3.631-.81-.92-1.819-1.379-3.027-1.379-1.547 0-2.7.588-3.458 1.765h-.042l-.127-1.562h-2.003a64.36 64.36 0 01.085 3.244v10.628h2.276v-5.192h.043c.59.932 1.56 1.399 2.91 1.399 1.25 0 2.297-.433 3.14-1.298zm-1.582-6.268c.451.623.676 1.414.676 2.373 0 1.041-.239 1.88-.717 2.515-.478.635-1.145.953-2.003.953-.732 0-1.326-.247-1.783-.74-.455-.494-.684-1.1-.684-1.816v-1.643c0-.175.037-.397.106-.668a2.48 2.48 0 01.895-1.41 2.428 2.428 0 011.53-.537c.83 0 1.488.324 1.98.973z" fill="#fff"/><path d="M91.278 28.397c0 1.163-.412 2.109-1.237 2.84-.906.797-2.169 1.196-3.79 1.196-1.498 0-2.699-.283-3.608-.852l.517-1.825a6.196 6.196 0 003.223.873c.84 0 1.493-.187 1.963-.559.468-.372.7-.871.7-1.494 0-.554-.192-1.022-.578-1.4-.383-.38-1.025-.732-1.92-1.058-2.436-.893-3.654-2.2-3.654-3.92 0-1.124.427-2.046 1.281-2.763.852-.718 1.987-1.077 3.408-1.077 1.266 0 2.318.217 3.158.65l-.557 1.785c-.785-.419-1.672-.628-2.664-.628-.784 0-1.397.19-1.837.568a1.61 1.61 0 00-.557 1.238c0 .54.212.987.639 1.338.371.325 1.046.676 2.025 1.055 1.197.474 2.077 1.028 2.642 1.662.564.633.846 1.425.846 2.37zm6.784-4.193h-2.48v4.68c0 1.19.437 1.785 1.313 1.785.402 0 .735-.033.999-.1l.062 1.627c-.443.158-1.027.237-1.75.237-.888 0-1.583-.258-2.084-.773-.5-.517-.75-1.383-.75-2.6v-4.858h-1.478v-1.608h1.478V20.83l2.21-.635v2.4h2.48v1.61z" fill="#fff"/><path fill-rule="evenodd" clip-rule="evenodd" d="M107.836 30.915c.884-.985 1.327-2.243 1.327-3.776 0-1.492-.428-2.709-1.287-3.651-.898-.972-2.087-1.458-3.566-1.458-1.533 0-2.753.493-3.657 1.478-.906.985-1.358 2.25-1.358 3.796 0 1.477.439 2.702 1.317 3.673.877.97 2.054 1.456 3.533 1.456 1.533 0 2.764-.505 3.691-1.518zm-1.596-6.071c.402.657.601 1.446.601 2.366 0 .919-.208 1.716-.621 2.387-.484.808-1.155 1.214-2.009 1.214-.873 0-1.549-.398-2.033-1.194-.402-.657-.6-1.445-.6-2.365 0-.948.198-1.75.6-2.408.469-.796 1.153-1.194 2.053-1.194.869 0 1.54.397 2.009 1.194z" fill="#fff"/><path d="M116.564 24.713a4.324 4.324 0 00-.727-.059c-.811 0-1.438.283-1.879.85-.384.5-.576 1.132-.576 1.895v5.034h-2.304l.022-6.573c0-1.106-.03-2.113-.087-3.02h2.008l.084 1.835h.064a3.291 3.291 0 011.153-1.52 2.939 2.939 0 011.666-.513c.213 0 .405.014.576.039v2.032z" fill="#fff"/><path fill-rule="evenodd" clip-rule="evenodd" d="M126.353 27.785a5.41 5.41 0 00.079-1.007c0-1.246-.287-2.296-.857-3.145-.72-1.069-1.78-1.603-3.18-1.603-1.426 0-2.559.534-3.397 1.603-.801 1-1.201 2.256-1.201 3.763 0 1.535.431 2.759 1.289 3.67.861.911 2.043 1.367 3.55 1.367 1.252 0 2.338-.205 3.257-.617l-.338-1.542c-.787.316-1.662.473-2.62.473-.867 0-1.573-.233-2.118-.699-.602-.52-.915-1.275-.94-2.263h6.476zm-2.399-3.29c.293.48.434 1.049.419 1.707h-4.496c.066-.672.279-1.248.639-1.728.438-.604 1.012-.905 1.718-.905.773 0 1.347.309 1.72.926z" fill="#fff"/><path d="M44.585 7.827a3.95 3.95 0 01.79-.343 3.44 3.44 0 011.036-.14c.642 0 1.147.148 1.518.444.37.296.555.696.555 1.2 0 .4-.124.734-.371 1.005a1.807 1.807 0 01-.949.541v.03c.212.032.413.088.6.169.19.08.356.188.497.324a1.435 1.435 0 01.461 1.074c0 .361-.074.664-.224.91a1.843 1.843 0 01-.585.6c-.24.154-.51.266-.808.332a4.07 4.07 0 01-.893.102 4.68 4.68 0 01-.943-.097 2.974 2.974 0 01-.864-.319l.268-.802c.172.084.394.165.665.242.271.078.545.116.824.116.456 0 .809-.1 1.057-.3a.98.98 0 00.372-.802.96.96 0 00-.15-.556 1.087 1.087 0 00-.387-.344 1.725 1.725 0 00-.531-.173 3.597 3.597 0 00-.58-.049h-.447v-.794h.447c.205 0 .395-.025.57-.078.176-.051.328-.124.457-.217.129-.094.23-.206.303-.334a.882.882 0 00.108-.436c0-.29-.106-.517-.318-.682-.212-.164-.496-.247-.853-.247-.245 0-.49.039-.735.116a5.5 5.5 0 00-.655.25l-.235-.742z" fill="#fff"/><path fill-rule="evenodd" clip-rule="evenodd" d="M53.299 13.427l.073.54v.002h.901a7.384 7.384 0 01-.065-1.12V11.12c0-1.294-.59-1.941-1.769-1.941-.617 0-1.132.135-1.546.405l.204.685c.338-.231.73-.348 1.175-.348.623 0 .935.31.935.927v.087c-.842 0-1.49.146-1.948.44-.458.292-.686.732-.686 1.317 0 .2.033.384.101.55.069.17.163.313.288.436a1.367 1.367 0 00.992.396c.576 0 1.015-.216 1.317-.647h.028zm-1.315-1.574c.273-.149.69-.222 1.25-.222v.724a.893.893 0 01-.082.381.984.984 0 01-.895.575.683.683 0 01-.49-.183c-.13-.122-.193-.305-.193-.55 0-.335.137-.577.41-.725z" fill="#fff"/><path d="M59.824 9.179v.896h-2.01v4H56.74V9.178h3.084z" fill="#fff"/><path fill-rule="evenodd" clip-rule="evenodd" d="M65.823 12.603c.112-.31.168-.653.168-1.028a2.8 2.8 0 00-.163-.976 2.292 2.292 0 00-.448-.756 2.031 2.031 0 00-.669-.49 2.014 2.014 0 00-.838-.174c-.774 0-1.35.282-1.729.844h-.022l-.064-.747h-1a35.724 35.724 0 01.04 1.552v5.082h1.14v-2.482h.021c.296.446.78.668 1.455.668.338 0 .645-.062.923-.184a2.1 2.1 0 00.716-.514 2.35 2.35 0 00.47-.795zm-1.08-1.634c.06.197.09.412.09.645 0 .504-.122.908-.361 1.209-.24.3-.573.45-1.002.45a1.32 1.32 0 01-.5-.091 1.145 1.145 0 01-.642-.645 1.27 1.27 0 01-.09-.485v-.786a1.256 1.256 0 01.791-1.155 1.24 1.24 0 01.475-.096 1.242 1.242 0 01.976.45c.115.14.203.308.263.504z" fill="#fff"/><path d="M71.542 9.179l-1.303 3.213c-.31.763-.612 1.387-.904 1.874-.294.486-.573.84-.842 1.063-.395.318-.815.512-1.26.581l-.275-.867c.296-.07.578-.206.847-.41.267-.203.482-.457.646-.763a.546.546 0 00.084-.209.795.795 0 00-.063-.22L66.608 9.18h1.259l.974 2.584c.05.12.1.257.149.41.05.152.102.321.16.505h.02c.036-.102.075-.23.117-.386.042-.156.099-.335.169-.539l.868-2.574h1.218v-.001zm2.06 2.046h.473c.348 0 .618-.063.806-.193.19-.13.285-.287.285-.474a.54.54 0 00-.242-.463c-.161-.115-.385-.174-.67-.174-.184 0-.368.031-.553.092a2.895 2.895 0 00-.518.227l-.265-.675c.265-.147.53-.249.793-.304.263-.054.526-.082.792-.082.21 0 .42.02.632.062.21.042.399.113.563.212.165.1.3.23.403.392.105.16.157.36.157.599a.846.846 0 01-.086.391 1.009 1.009 0 01-.227.299c-.094.086-.2.158-.317.212a1.691 1.691 0 01-.355.121v.03c.15.019.298.058.44.116.143.057.27.133.385.226.113.094.205.207.275.338a.962.962 0 01.103.449c0 .277-.065.508-.199.695a1.436 1.436 0 01-.508.444 2.43 2.43 0 01-.678.237 3.794 3.794 0 01-1.564-.02 2.624 2.624 0 01-.752-.284l.267-.686c.165.09.352.166.564.227.212.06.428.092.65.092.347 0 .615-.069.802-.207.184-.139.278-.311.278-.517a.594.594 0 00-.094-.342.698.698 0 00-.265-.227 1.282 1.282 0 00-.399-.12 3.312 3.312 0 00-.493-.035h-.483v-.658zm5.751-2.045v1.733c0 .396-.006.752-.02 1.067-.015.316-.03.648-.05.997l.02.02c.126-.256.25-.505.373-.751.124-.245.249-.495.375-.75l1.197-2.317h1.395v4.894h-1.018v-1.732c0-.362.01-.724.026-1.087s.034-.729.054-1.098h-.05a7.26 7.26 0 01-.34.786c-.111.22-.224.45-.337.685-.206.403-.41.806-.614 1.209-.203.402-.418.816-.643 1.238h-1.395V9.181h1.027zm8.841-.001v.896h-1.592v4h-1.143v-4h-1.582v-.896h4.317z" fill="#fff"/><path fill-rule="evenodd" clip-rule="evenodd" d="M93.734 11.67c.006-.081.01-.167.01-.257 0-.335-.046-.64-.14-.914a2 2 0 00-.406-.706 1.76 1.76 0 00-.637-.455 2.12 2.12 0 00-.836-.16 2.17 2.17 0 00-1.67.726 2.444 2.444 0 00-.465.799 2.99 2.99 0 00-.163 1.001c0 .361.055.686.163.977.11.29.27.538.475.745.207.206.46.366.76.479.3.112.64.17 1.019.17.627 0 1.169-.098 1.63-.291l-.17-.726c-.4.148-.836.222-1.309.222-.452 0-.818-.121-1.094-.363-.276-.241-.42-.585-.435-1.03h3.238a1.68 1.68 0 00.03-.218zm-1.294-1.422c.183.229.274.527.274.895h-2.247c.034-.362.16-.658.38-.89.22-.233.484-.349.799-.349.346 0 .61.116.794.344zm5.622-.961c.205-.032.464-.059.782-.079.317-.02.641-.03.974-.03.211 0 .45.013.714.035.264.022.518.075.756.157.241.082.441.204.603.368.163.164.246.385.246.666 0 .145-.03.274-.085.388a.98.98 0 01-.229.299 1.27 1.27 0 01-.328.21 1.687 1.687 0 01-.386.123l.011.029c.373.059.677.183.91.373.232.19.349.451.349.785s-.101.599-.296.795a1.872 1.872 0 01-.731.442 3.81 3.81 0 01-.916.187c-.32.025-.608.04-.861.04-.284 0-.56-.007-.832-.021a29.868 29.868 0 01-.681-.04V9.288zm1.1 1.904h.58c.178 0 .346-.011.504-.035.159-.022.298-.058.418-.107a.705.705 0 00.281-.196.457.457 0 00.101-.3.5.5 0 00-.293-.475c-.194-.1-.498-.151-.914-.151a4.09 4.09 0 00-.313.01c-.087.006-.209.016-.365.03v1.224zm.353 2.137a17.952 17.952 0 01-.354-.03v-1.422h.604c.446 0 .797.052 1.059.156.26.104.392.292.392.565a.557.557 0 01-.124.375.81.81 0 01-.321.225 1.69 1.69 0 01-.446.112 4.601 4.601 0 01-.81.02z" fill="#fff"/></svg>