<svg width="140" height="41" viewBox="0 0 140 41" fill="none" xmlns="http://www.w3.org/2000/svg">
<path d="M135.019 41H4.90415C2.20059 41 0 38.8188 0 36.1487V4.84415C0 2.173 2.20059 0 4.90415 0H135.019C137.722 0 140 2.173 140 4.84415V36.1487C140 38.8188 137.722 41 135.019 41Z" fill="#A6A6A6"/>
<path d="M138.766 35.8506C138.766 38.0196 136.988 39.7765 134.788 39.7765H4.60009C2.40139 39.7765 0.616699 38.0196 0.616699 35.8506V4.54328C0.616699 2.37535 2.40139 0.612305 4.60009 0.612305H134.787C136.988 0.612305 138.765 2.37535 138.765 4.54328L138.766 35.8506Z" fill="black"/>
<path d="M31.036 20.2478C31.0059 16.9443 33.7689 15.3371 33.8952 15.2622C32.3304 13.0042 29.9051 12.6956 29.0528 12.671C27.0158 12.4589 25.0399 13.8775 24.0022 13.8775C22.9439 13.8775 21.3459 12.6915 19.6238 12.7264C17.4076 12.7602 15.3344 14.0302 14.1973 16.0023C11.8506 20.0234 13.6008 25.9325 15.849 29.1828C16.9737 30.7746 18.2879 32.5519 20.008 32.4894C21.6908 32.4207 22.3194 31.4275 24.3502 31.4275C26.3623 31.4275 26.9526 32.4894 28.7069 32.4494C30.513 32.4207 31.6501 30.8504 32.7354 29.2443C34.035 27.4198 34.557 25.6229 34.5777 25.5307C34.5352 25.5163 31.0701 24.2074 31.036 20.2478Z" fill="white"/>
<path d="M27.7221 10.533C28.6272 9.4127 29.2465 7.88852 29.0746 6.3418C27.7646 6.3992 26.1263 7.23867 25.1829 8.3344C24.3482 9.29995 23.6026 10.8825 23.7952 12.3708C25.2667 12.4795 26.7777 11.6359 27.7221 10.533Z" fill="white"/>
<path fill-rule="evenodd" clip-rule="evenodd" d="M53.138 32.4324H55.5066L51.0165 18.9697H48.2568L43.7886 32.4324H46.0946L47.3306 28.478H51.8405L53.138 32.4324ZM50.276 23.3037L51.4494 26.8191H47.7228L48.8753 23.3037C49.1778 22.1859 49.3978 21.3402 49.5345 20.7676H49.5762C49.9193 22.0989 50.1519 22.9446 50.276 23.3037Z" fill="white"/>
<path fill-rule="evenodd" clip-rule="evenodd" d="M65.8119 31.0135C66.7537 30.0408 67.2247 28.7158 67.2247 27.0395C67.2247 25.5389 66.821 24.329 66.0116 23.4087C65.2043 22.4894 64.1952 22.0303 62.9864 22.0303C61.4402 22.0303 60.288 22.6178 59.5288 23.7949H59.4861L59.359 22.2326H57.3568C57.4123 23.3419 57.4412 24.4235 57.4412 25.4773V36.1049H59.7178V30.9128H59.7605C60.351 31.8454 61.3206 32.3117 62.6703 32.3117C63.9208 32.3117 64.9683 31.8793 65.8119 31.0135ZM64.2305 24.7462C64.6811 25.3686 64.9053 26.1595 64.9053 27.1188C64.9053 28.1603 64.6661 28.9984 64.1878 29.6342C63.7104 30.269 63.043 30.5874 62.1856 30.5874C61.4552 30.5874 60.8615 30.3409 60.4044 29.8468C59.9474 29.3528 59.7189 28.7478 59.7189 28.0309V26.3875C59.7189 26.2129 59.7541 25.991 59.8246 25.7199C59.9645 25.1385 60.2635 24.6691 60.7205 24.3096C61.1765 23.9532 61.6869 23.7725 62.2486 23.7725C63.0772 23.7725 63.7382 24.097 64.2305 24.7462Z" fill="white"/>
<path fill-rule="evenodd" clip-rule="evenodd" d="M76.912 31.0135C77.855 30.0408 78.326 28.7158 78.326 27.0395C78.326 25.5389 77.9212 24.329 77.1149 23.4087C76.3054 22.4894 75.2962 22.0303 74.0884 22.0303C72.5409 22.0303 71.3886 22.6178 70.6303 23.7949H70.5876L70.4605 22.2326H68.4581C68.5137 23.3419 68.5425 24.4235 68.5425 25.4773V36.1049H70.8194V30.9128H70.8621C71.4516 31.8454 72.4213 32.3117 73.7712 32.3117C75.0217 32.3117 76.0694 31.8793 76.912 31.0135ZM75.3303 24.7462C75.781 25.3686 76.0064 26.1595 76.0064 27.1188C76.0064 28.1603 75.7671 28.9984 75.2887 29.6342C74.8113 30.269 74.1439 30.5874 73.2863 30.5874C72.5537 30.5874 71.9599 30.3399 71.5028 29.8468C71.0479 29.3528 70.8193 28.7478 70.8193 28.0309V26.3875C70.8193 26.2129 70.8556 25.991 70.9251 25.7199C71.065 25.1385 71.3629 24.6691 71.82 24.3096C72.2771 23.9532 72.7865 23.7725 73.3493 23.7725C74.1791 23.7725 74.838 24.097 75.3303 24.7462Z" fill="white"/>
<path d="M91.2775 28.3966C91.2775 29.5595 90.8665 30.5057 90.0414 31.2362C89.1346 32.0344 87.8723 32.433 86.2503 32.433C84.7526 32.433 83.552 32.1495 82.6432 31.5814L83.1598 29.7558C84.1387 30.3372 85.2128 30.629 86.3831 30.629C87.2229 30.629 87.8765 30.442 88.3461 30.0701C88.8136 29.6982 89.0468 29.1989 89.0468 28.5764C89.0468 28.0216 88.8544 27.5542 88.4685 27.1751C88.0846 26.796 87.4435 26.4436 86.5483 26.1179C84.1115 25.2252 82.8942 23.9174 82.8942 22.1976C82.8942 21.0737 83.3209 20.1521 84.1753 19.4351C85.0266 18.7169 86.1624 18.3584 87.5826 18.3584C88.8491 18.3584 89.9012 18.5752 90.741 19.0077L90.1836 20.7932C89.3992 20.374 88.5124 20.1645 87.5199 20.1645C86.7355 20.1645 86.1227 20.3545 85.6834 20.7326C85.3121 21.0706 85.126 21.4826 85.126 21.9705C85.126 22.5109 85.3383 22.9578 85.765 23.3092C86.1363 23.6338 86.8108 23.9852 87.7897 24.3643C88.9872 24.8379 89.8667 25.3916 90.4325 26.0265C90.9962 26.6593 91.2775 27.4514 91.2775 28.3966Z" fill="white"/>
<path d="M98.0617 24.2036H95.5816V28.884C95.5816 30.0744 96.0186 30.6691 96.8945 30.6691C97.2966 30.6691 97.6301 30.6359 97.8939 30.5696L97.9562 32.1961C97.5129 32.3538 96.9293 32.4331 96.2064 32.4331C95.3178 32.4331 94.6234 32.175 94.1221 31.6596C93.6229 31.1433 93.3718 30.2773 93.3718 29.0608V24.2016H91.8943V22.5943H93.3718V20.8292L95.5816 20.1943V22.5943H98.0617V24.2036Z" fill="white"/>
<path fill-rule="evenodd" clip-rule="evenodd" d="M107.836 30.9147C108.72 29.9305 109.163 28.6718 109.163 27.1387C109.163 25.6473 108.735 24.4302 107.876 23.4875C106.978 22.5157 105.789 22.0303 104.31 22.0303C102.777 22.0303 101.557 22.5229 100.653 23.5082C99.7466 24.4925 99.2952 25.7585 99.2952 27.304C99.2952 28.7809 99.734 30.0063 100.612 30.9771C101.489 31.9479 102.666 32.4333 104.145 32.4333C105.678 32.4333 106.909 31.9281 107.836 30.9147ZM106.24 24.8436C106.642 25.5015 106.841 26.2904 106.841 27.2102C106.841 28.129 106.633 28.9262 106.22 29.5966C105.736 30.4052 105.065 30.8106 104.211 30.8106C103.338 30.8106 102.662 30.4135 102.178 29.6174C101.776 28.9605 101.578 28.1716 101.578 27.2518C101.578 26.3039 101.776 25.5025 102.178 24.8436C102.647 24.0485 103.331 23.6504 104.231 23.6504C105.1 23.6504 105.771 24.0474 106.24 24.8436Z" fill="white"/>
<path d="M116.564 24.7132C116.336 24.6742 116.092 24.6542 115.837 24.6542C115.026 24.6542 114.399 24.9371 113.958 25.504C113.574 26.0039 113.382 26.6358 113.382 27.3987V32.4326H111.078L111.1 25.86C111.1 24.7542 111.07 23.7474 111.013 22.8396H113.021L113.105 24.6752H113.169C113.412 24.0443 113.796 23.5364 114.322 23.1555C114.835 22.8126 115.39 22.6416 115.988 22.6416C116.201 22.6416 116.393 22.6556 116.564 22.6806V24.7132Z" fill="white"/>
<path fill-rule="evenodd" clip-rule="evenodd" d="M126.353 27.7853C126.406 27.5114 126.432 27.176 126.432 26.7782C126.432 25.5316 126.145 24.4818 125.575 23.6331C124.855 22.5645 123.795 22.0303 122.395 22.0303C120.969 22.0303 119.836 22.5645 118.998 23.6331C118.197 24.6339 117.797 25.8888 117.797 27.3958C117.797 28.9309 118.228 30.1546 119.086 31.0658C119.947 31.9771 121.129 32.4333 122.636 32.4333C123.888 32.4333 124.974 32.2281 125.893 31.8157L125.555 30.2743C124.768 30.5899 123.893 30.7472 122.935 30.7472C122.068 30.7472 121.362 30.5139 120.817 30.0484C120.215 29.5276 119.902 28.7726 119.877 27.7853H126.353ZM123.954 24.4952C124.247 24.9753 124.388 25.5439 124.373 26.2021V26.2011H119.877C119.943 25.5304 120.156 24.9545 120.516 24.4744C120.954 23.8703 121.528 23.5693 122.234 23.5693C123.007 23.5693 123.581 23.8776 123.954 24.4952Z" fill="white"/>
<path d="M44.5853 7.82719C44.8176 7.69163 45.0794 7.578 45.3741 7.4843C45.6677 7.3906 46.0135 7.34375 46.4114 7.34375C47.0529 7.34375 47.5582 7.49227 47.9286 7.78832C48.2989 8.08437 48.4841 8.48408 48.4841 8.98746C48.4841 9.38718 48.3603 9.7221 48.1127 9.99323C47.8652 10.2644 47.548 10.4448 47.1644 10.5345V10.5634C47.3761 10.5963 47.5767 10.6521 47.7649 10.7328C47.9542 10.8136 48.1199 10.9212 48.2611 11.0568C48.4033 11.1924 48.5158 11.3499 48.5987 11.5313C48.6805 11.7117 48.7225 11.9111 48.7225 12.1313C48.7225 12.4922 48.6478 12.7952 48.4984 13.0404C48.349 13.2856 48.1547 13.485 47.9132 13.6405C47.6728 13.795 47.4027 13.9066 47.105 13.9734C46.8073 14.0402 46.5096 14.0751 46.2119 14.0751C45.8938 14.0751 45.5797 14.0422 45.2687 13.9784C44.9577 13.9146 44.6702 13.808 44.4053 13.6594L44.6733 12.857C44.8452 12.9407 45.0672 13.0215 45.3383 13.0992C45.6094 13.177 45.8835 13.2149 46.1618 13.2149C46.6181 13.2149 46.971 13.1152 47.2186 12.9158C47.4662 12.7155 47.591 12.4483 47.591 12.1134C47.591 11.8871 47.5409 11.7027 47.4416 11.5572C47.3414 11.4117 47.2125 11.298 47.0539 11.2133C46.8953 11.1296 46.7183 11.0718 46.5229 11.0399C46.3275 11.008 46.1342 10.991 45.9429 10.991H45.4958V10.1966H45.9429C46.1475 10.1966 46.3378 10.1717 46.5137 10.1188C46.6887 10.068 46.8411 9.99522 46.97 9.90152C47.0989 9.80782 47.2002 9.69618 47.2728 9.5676C47.3444 9.43901 47.3813 9.29348 47.3813 9.132C47.3813 8.84193 47.2749 8.61466 47.0631 8.45019C46.8513 8.28572 46.5669 8.20299 46.2099 8.20299C45.9654 8.20299 45.7199 8.24186 45.4754 8.31861C45.2309 8.39636 45.0119 8.48009 44.8196 8.56981L44.5853 7.82719Z" fill="white"/>
<path fill-rule="evenodd" clip-rule="evenodd" d="M53.2987 13.4271L53.3723 13.9677V13.9687H54.2731C54.23 13.7049 54.2081 13.3315 54.2081 12.8486V11.1202C54.2081 9.82587 53.6181 9.17871 52.4391 9.17871C51.8224 9.17871 51.307 9.31412 50.893 9.58393L51.0966 10.2689C51.4351 10.0379 51.8271 9.92145 52.2718 9.92145C52.8952 9.92145 53.2069 10.2301 53.2069 10.8484V10.935C52.3655 10.935 51.7172 11.0814 51.2592 11.3741C50.8012 11.6668 50.5726 12.1069 50.5726 12.6923C50.5726 12.8914 50.6061 13.0756 50.674 13.2429C50.7428 13.4111 50.8375 13.5555 50.9618 13.678C51.0851 13.8004 51.2305 13.897 51.3978 13.9677C51.5652 14.0384 51.7497 14.0742 51.9543 14.0742C52.5299 14.0742 52.9688 13.8582 53.271 13.4271H53.2987ZM51.9841 11.8529C52.2575 11.7045 52.6744 11.6309 53.2338 11.6309V12.3547C53.2338 12.4901 53.207 12.6165 53.1516 12.736C53.0951 12.8555 53.0234 12.957 52.9335 13.0407C52.8446 13.1243 52.7423 13.191 52.6257 13.2388C52.508 13.2876 52.3857 13.3115 52.2566 13.3115C52.0596 13.3115 51.8961 13.2508 51.767 13.1283C51.6379 13.0058 51.5739 12.8226 51.5739 12.5777C51.5739 12.2432 51.7106 12.0012 51.9841 11.8529Z" fill="white"/>
<path d="M59.8238 9.17871V10.0749H57.8138V14.0742H56.7401V9.17871H59.8238Z" fill="white"/>
<path fill-rule="evenodd" clip-rule="evenodd" d="M65.8227 12.6029C65.9347 12.2929 65.9912 11.95 65.9912 11.5751C65.9912 11.2192 65.9368 10.8943 65.8282 10.5994C65.7195 10.3044 65.5706 10.0525 65.3804 9.84255C65.1902 9.6326 64.9674 9.46964 64.711 9.35267C64.4545 9.2367 64.1741 9.17871 63.8731 9.17871C63.0993 9.17871 62.5233 9.46064 62.144 10.0225H62.1223L62.0582 9.27569H61.0573C61.0703 9.54762 61.0812 9.81156 61.0877 10.0665C61.0953 10.3224 61.0985 10.5764 61.0985 10.8283V15.9101H62.2375V13.4277H62.2592C62.5548 13.8736 63.0395 14.0965 63.7144 14.0965C64.0524 14.0965 64.3588 14.0345 64.6371 13.9115C64.9142 13.7896 65.1533 13.6176 65.3532 13.3977C65.5543 13.1787 65.7097 12.9138 65.8227 12.6029ZM64.7425 10.9694C64.8023 11.1664 64.8327 11.3813 64.8327 11.6143C64.8327 12.1181 64.711 12.522 64.4719 12.823C64.2329 13.1239 63.8992 13.2738 63.4699 13.2738C63.2874 13.2738 63.1211 13.2439 62.97 13.1819C62.819 13.1209 62.6886 13.0349 62.5799 12.9249C62.4712 12.815 62.3875 12.686 62.3278 12.537C62.2669 12.3881 62.2375 12.2261 62.2375 12.0521V11.2663C62.2375 11.0914 62.2734 10.9264 62.3441 10.7715C62.4147 10.6165 62.5071 10.4835 62.6234 10.3736C62.7385 10.2636 62.8733 10.1756 63.0287 10.1116C63.1841 10.0476 63.3428 10.0146 63.5036 10.0146C63.7079 10.0146 63.8927 10.0546 64.0579 10.1356C64.2231 10.2166 64.3644 10.3266 64.4795 10.4655C64.5947 10.6045 64.6828 10.7725 64.7425 10.9694Z" fill="white"/>
<path d="M71.5418 9.17871L70.2391 12.392C69.9292 13.1548 69.627 13.779 69.3346 14.2656C69.041 14.7521 68.7617 15.106 68.4933 15.3291C68.0983 15.6466 67.6783 15.8412 67.2331 15.9101L66.9582 15.0431C67.2538 14.9733 67.5364 14.8367 67.8048 14.6332C68.0722 14.4297 68.2871 14.1761 68.4508 13.8704C68.5075 13.7692 68.5348 13.6994 68.5348 13.661C68.5348 13.6227 68.513 13.55 68.4715 13.4418L66.6079 9.17969H67.867L68.8414 11.7639C68.8916 11.8848 68.9407 12.0214 68.9898 12.1738C69.04 12.3262 69.0923 12.4952 69.1491 12.679H69.1709C69.2058 12.5768 69.2451 12.449 69.2865 12.2927C69.3291 12.1374 69.3858 11.9576 69.4557 11.7541L70.3242 9.17969H71.5418V9.17871Z" fill="white"/>
<path d="M73.6019 11.2253H74.0754C74.4226 11.2253 74.6926 11.1616 74.8814 11.0322C75.0702 10.9028 75.1661 10.7455 75.1661 10.5584C75.1661 10.3653 75.0858 10.211 74.9235 10.0955C74.763 9.98003 74.539 9.9213 74.2544 9.9213C74.0705 9.9213 73.8856 9.95216 73.7007 10.0129C73.5139 10.0746 73.3418 10.1503 73.1833 10.2398L72.9182 9.56494C73.1833 9.41761 73.4474 9.31608 73.7115 9.26133C73.9737 9.20658 74.2368 9.17871 74.5028 9.17871C74.7132 9.17871 74.9235 9.19961 75.1348 9.24142C75.3451 9.28323 75.5338 9.35391 75.6982 9.45345C75.8625 9.55299 75.9985 9.68339 76.1012 9.84465C76.2059 10.0059 76.2577 10.205 76.2577 10.4439C76.2577 10.5922 76.2293 10.7226 76.1716 10.8351C76.1159 10.9476 76.0396 11.0471 75.9447 11.1337C75.8508 11.2203 75.7442 11.292 75.6278 11.3458C75.5113 11.4005 75.391 11.4413 75.2727 11.4672V11.4961C75.4233 11.516 75.571 11.5548 75.7138 11.6125C75.8557 11.6703 75.9828 11.7459 76.0983 11.8395C76.2107 11.9331 76.3027 12.0455 76.3731 12.1769C76.4416 12.3093 76.4758 12.4587 76.4758 12.6259C76.4758 12.9026 76.4113 13.1345 76.2773 13.3207C76.1452 13.5078 75.975 13.6552 75.7686 13.7647C75.5642 13.8742 75.3372 13.9528 75.0907 14.0016C74.8442 14.0493 74.6036 14.0742 74.3708 14.0742C74.0861 14.0742 73.8035 14.0434 73.5266 13.9827C73.2478 13.9209 72.9974 13.8264 72.7754 13.698L73.0424 13.0121C73.2068 13.1027 73.3936 13.1783 73.6059 13.2391C73.8181 13.2998 74.0343 13.3306 74.2554 13.3306C74.6026 13.3306 74.8706 13.262 75.0575 13.1236C75.2424 12.9852 75.3363 12.813 75.3363 12.607C75.3363 12.4716 75.3059 12.3581 75.2424 12.2645C75.1788 12.171 75.0898 12.0953 74.9773 12.0376C74.8628 11.9798 74.7308 11.939 74.5782 11.9171C74.4275 11.8942 74.2612 11.8833 74.0852 11.8833H73.6019V11.2253Z" fill="white"/>
<path d="M79.353 9.18079V10.9126C79.353 11.3093 79.3469 11.6654 79.3325 11.98C79.3181 12.2956 79.3027 12.6279 79.2821 12.9768L79.3027 12.9965C79.4291 12.7411 79.5535 12.4919 79.6759 12.2458C79.8003 12.0008 79.9247 11.7505 80.0512 11.4951L81.2479 9.17871H82.6431V14.0732H81.6252V12.3413C81.6252 11.979 81.6355 11.6166 81.6509 11.2542C81.6674 10.8908 81.6849 10.5254 81.7054 10.1557H81.6551C81.543 10.4579 81.4299 10.7195 81.3158 10.9417C81.2037 11.1629 81.0906 11.3913 80.9785 11.627C80.7719 12.0298 80.5673 12.4327 80.3637 12.8356C80.1612 13.2384 79.9463 13.6517 79.7211 14.0742H78.3259V9.18079H79.353Z" fill="white"/>
<path d="M88.1939 9.17871V10.0749H86.6017V14.0742H85.4589V10.0749H83.8767V9.17871H88.1939Z" fill="white"/>
<path fill-rule="evenodd" clip-rule="evenodd" d="M93.7342 11.6694C93.7404 11.5886 93.7445 11.5028 93.7445 11.413C93.7445 11.0779 93.6982 10.7726 93.6034 10.4993C93.5107 10.226 93.3757 9.98964 93.1985 9.79314C93.0233 9.59565 92.81 9.44403 92.5607 9.3383C92.3082 9.23158 92.0311 9.17871 91.7251 9.17871C91.3789 9.17871 91.0625 9.24355 90.7792 9.37222C90.4979 9.50189 90.2558 9.67844 90.0549 9.90486C89.856 10.1303 89.7004 10.3966 89.5902 10.7028C89.482 11.009 89.4274 11.3432 89.4274 11.7043C89.4274 12.0654 89.482 12.3905 89.5902 12.6808C89.7004 12.971 89.8601 13.2194 90.0652 13.4259C90.2723 13.6324 90.5257 13.792 90.8256 13.9047C91.1254 14.0174 91.4654 14.0742 91.8435 14.0742C92.471 14.0742 93.013 13.9775 93.4736 13.784L93.3046 13.0578C92.9048 13.2064 92.4679 13.2803 91.995 13.2803C91.5427 13.2803 91.1769 13.1586 90.9008 12.9172C90.6246 12.6758 90.4804 12.3317 90.466 11.8868H93.7044C93.7178 11.823 93.7281 11.7502 93.7342 11.6694ZM92.44 10.2484C92.6234 10.4768 92.7141 10.7751 92.7141 11.1431H90.4669C90.5009 10.7811 90.6277 10.4848 90.8471 10.2524C91.0666 10.02 91.3314 9.9043 91.6456 9.9043C91.9918 9.9043 92.2566 10.02 92.44 10.2484Z" fill="white"/>
<path fill-rule="evenodd" clip-rule="evenodd" d="M98.0616 9.28692C98.2668 9.25456 98.5264 9.22826 98.8439 9.20804C99.1614 9.18781 99.4854 9.17871 99.8182 9.17871C100.029 9.17871 100.268 9.19085 100.532 9.21309C100.796 9.23534 101.05 9.28793 101.288 9.36984C101.529 9.45175 101.729 9.57411 101.891 9.73794C102.054 9.90176 102.137 10.1232 102.137 10.4044C102.137 10.549 102.107 10.6784 102.052 10.7917C101.994 10.9059 101.92 11.0061 101.823 11.091C101.727 11.176 101.618 11.2467 101.495 11.3014C101.372 11.357 101.244 11.3984 101.109 11.4237L101.12 11.453C101.493 11.5117 101.797 11.6361 102.03 11.8262C102.262 12.0163 102.379 12.2772 102.379 12.6109C102.379 12.9447 102.278 13.2096 102.083 13.4058C101.885 13.602 101.642 13.7496 101.352 13.8477C101.062 13.9458 100.758 14.0085 100.436 14.0348C100.116 14.0601 99.828 14.0742 99.5749 14.0742C99.2912 14.0742 99.0141 14.0682 98.7435 14.054C98.4708 14.0409 98.2449 14.0277 98.0616 14.0146V9.28692ZM99.1614 11.1908H99.7429C99.9196 11.1908 100.088 11.1797 100.246 11.1565C100.405 11.1342 100.544 11.0978 100.664 11.0493C100.785 10.9997 100.876 10.935 100.945 10.8531C101.012 10.7712 101.046 10.6721 101.046 10.5537C101.046 10.3383 100.95 10.1796 100.753 10.0784C100.559 9.97732 100.255 9.92676 99.8389 9.92676C99.72 9.92676 99.6152 9.92979 99.5258 9.93687C99.4385 9.94294 99.3174 9.95305 99.1614 9.9662V11.1908ZM99.5149 13.3281C99.421 13.3211 99.3021 13.312 99.1614 13.2988V11.876H99.7647C100.211 11.876 100.562 11.9276 100.824 12.0317C101.084 12.1359 101.216 12.324 101.216 12.597C101.216 12.7527 101.173 12.8781 101.092 12.9722C101.012 13.0672 100.905 13.1421 100.771 13.1967C100.636 13.2523 100.487 13.2897 100.325 13.3089C100.163 13.3292 100.006 13.3383 99.8498 13.3383C99.7211 13.3383 99.6109 13.3352 99.5149 13.3281Z" fill="white"/>
</svg>
