<svg width="89" height="92" fill="none" xmlns="http://www.w3.org/2000/svg"><mask id="path-1-outside-1_447_3533" maskUnits="userSpaceOnUse" x=".149" y=".5" width="89" height="91" fill="#000"><path fill="#fff" d="M.149.5h89v91h-89z"/><path d="M54.45 37.2C61.6 37.2 66 26.75 66 20.15c0-5.5-2.75-12.1-8.25-12.1C50.6 8.05 46.2 18.5 46.2 25.1c0 5.5 2.75 12.1 8.25 12.1zm-20.9 0c5.5 0 8.25-6.6 8.25-12.1 0-7.15-4.4-17.6-11.55-17.6-5.5 0-8.25 6.6-8.25 12.1-.55 7.15 3.85 17.6 11.55 17.6zm40.7-5.5c-7.15 0-12.1 9.9-12.1 17.05 0 4.95 2.2 9.9 7.15 9.9 7.15 0 12.1-9.9 12.1-17.05 0-4.95-2.75-9.9-7.15-9.9zM26.4 48.75c0-7.15-5.5-17.05-12.1-17.05-4.95 0-7.15 4.95-7.15 9.9 0 7.15 5.5 17.05 12.1 17.05 4.95 0 7.15-4.95 7.15-9.9zm17.6-1.1c-11 0-25.85 17.6-25.85 29.7 0 5.5 3.85 7.15 8.25 7.15 6.6 0 11.55-4.4 17.6-4.4 5.5 0 10.45 4.4 16.5 4.4 4.4 0 9.35-1.1 9.35-7.15 0-12.1-14.85-29.7-25.85-29.7z"/></mask><path d="M54.45 37.2C61.6 37.2 66 26.75 66 20.15c0-5.5-2.75-12.1-8.25-12.1C50.6 8.05 46.2 18.5 46.2 25.1c0 5.5 2.75 12.1 8.25 12.1v0zm-20.9 0c5.5 0 8.25-6.6 8.25-12.1 0-7.15-4.4-17.6-11.55-17.6-5.5 0-8.25 6.6-8.25 12.1-.55 7.15 3.85 17.6 11.55 17.6v0zm40.7-5.5c-7.15 0-12.1 9.9-12.1 17.05 0 4.95 2.2 9.9 7.15 9.9 7.15 0 12.1-9.9 12.1-17.05 0-4.95-2.75-9.9-7.15-9.9v0zM26.4 48.75c0-7.15-5.5-17.05-12.1-17.05-4.95 0-7.15 4.95-7.15 9.9 0 7.15 5.5 17.05 12.1 17.05 4.95 0 7.15-4.95 7.15-9.9zm17.6-1.1c-11 0-25.85 17.6-25.85 29.7 0 5.5 3.85 7.15 8.25 7.15 6.6 0 11.55-4.4 17.6-4.4 5.5 0 10.45 4.4 16.5 4.4 4.4 0 9.35-1.1 9.35-7.15 0-12.1-14.85-29.7-25.85-29.7v0z" stroke="#FFC59E" stroke-width="14" stroke-linecap="round" stroke-linejoin="round" mask="url(#path-1-outside-1_447_3533)"/></svg>